<svg xmlns = "http://www.w3.org/2000/svg" width = "1000" height = "1000">
<g>
<polygon points = "139.022, 534.450 254.662, 660.963 261.809, 744.756 209.995, 777.936 183.514, 768.021 142.343, 700.546 108.776, 539.738 128.460, 534.069 "
fill = "none" stroke = "black"/>
</g>
<g>
<polygon points = "60.612, 288.166 57.141, 299.097 0.000, 301.954 0.000, 194.970 "
fill = "none" stroke = "black"/>
</g>
<g>
<polygon points = "235.403, 959.655 388.568, 850.272 413.734, 863.493 378.639, 945.986 323.457, 1000.000 239.344, 1000.000 "
fill = "none" stroke = "black"/>
</g>
<g>
<polygon points = "450.483, 370.986 386.221, 332.101 509.628, 267.732 532.967, 301.003 465.536, 369.808 "
fill = "none" stroke = "black"/>
</g>
<g>
<polygon points = "910.152, 780.091 917.879, 754.081 1000.000, 688.570 1000.000, 846.047 "
fill = "none" stroke = "black"/>
</g>
<g>
<polygon points = "562.945, 832.519 711.641, 794.068 741.761, 823.659 651.161, 1000.000 646.152, 1000.000 "
fill = "none" stroke = "black"/>
</g>
<g>
<polygon points = "940.344, 185.047 878.234, 230.840 856.069, 222.010 857.492, 165.632 935.107, 126.766 "
fill = "none" stroke = "black"/>
</g>
<g>
<polygon points = "777.593, 811.570 797.809, 724.560 821.883, 708.657 843.100, 834.219 "
fill = "none" stroke = "black"/>
</g>
<g>
<polygon points = "59.494, 400.834 64.186, 521.799 0.000, 518.627 0.000, 402.989 "
fill = "none" stroke = "black"/>
</g>
<g>
<polygon points = "495.328, 808.396 489.738, 809.831 425.666, 742.688 468.051, 657.559 490.181, 666.623 "
fill = "none" stroke = "black"/>
</g>
<g>
<polygon points = "446.225, 591.099 447.859, 587.114 543.892, 495.260 582.782, 581.554 "
fill = "none" stroke = "black"/>
</g>
<g>
<polygon points = "909.150, 1000.000 890.387, 978.807 883.143, 864.725 1000.000, 901.214 1000.000, 1000.000 "
fill = "none" stroke = "black"/>
</g>
<g>
<polygon points = "431.585, 86.840 420.431, 103.871 266.230, 197.563 251.842, 171.419 321.375, 0.000 378.824, 0.000 "
fill = "none" stroke = "black"/>
</g>
<g>
<polygon points = "574.239, 312.222 506.934, 405.340 465.536, 369.808 532.967, 301.003 "
fill = "none" stroke = "black"/>
</g>
<g>
<polygon points = "133.258, 97.897 0.000, 79.169 0.000, 0.000 135.865, 0.000 "
fill = "none" stroke = "black"/>
</g>
<g>
<polygon points = "84.821, 554.139 84.734, 663.938 0.000, 689.008 0.000, 667.946 "
fill = "none" stroke = "black"/>
</g>
<g>
<polygon points = "639.561, 164.112 621.158, 184.657 513.745, 210.755 494.091, 186.126 502.426, 117.614 "
fill = "none" stroke = "black"/>
</g>
<g>
<polygon points = "492.620, 82.818 431.585, 86.840 378.824, 0.000 551.847, 0.000 "
fill = "none" stroke = "black"/>
</g>
<g>
<polygon points = "492.620, 82.818 502.426, 117.614 494.091, 186.126 445.849, 182.773 420.431, 103.871 431.585, 86.840 "
fill = "none" stroke = "black"/>
</g>
<g>
<polygon points = "133.258, 97.897 136.807, 105.253 122.220, 120.997 0.000, 177.990 0.000, 79.169 "
fill = "none" stroke = "black"/>
</g>
<g>
<polygon points = "843.549, 970.281 890.387, 978.807 909.150, 1000.000 780.988, 1000.000 "
fill = "none" stroke = "black"/>
</g>
<g>
<polygon points = "84.734, 663.938 84.821, 554.139 91.619, 539.241 108.776, 539.738 142.343, 700.546 "
fill = "none" stroke = "black"/>
</g>
<g>
<polygon points = "57.141, 299.097 89.510, 344.822 59.494, 400.834 0.000, 402.989 0.000, 301.954 "
fill = "none" stroke = "black"/>
</g>
<g>
<polygon points = "621.158, 184.657 639.561, 164.112 683.591, 132.157 748.134, 260.176 622.191, 328.309 616.598, 326.604 598.559, 313.150 "
fill = "none" stroke = "black"/>
</g>
<g>
<polygon points = "599.111, 647.578 607.762, 640.313 623.921, 644.827 685.269, 671.433 699.264, 768.444 587.655, 754.957 "
fill = "none" stroke = "black"/>
</g>
<g>
<polygon points = "541.754, 468.851 574.492, 457.845 617.233, 462.830 590.399, 589.427 582.782, 581.554 543.892, 495.260 "
fill = "none" stroke = "black"/>
</g>
<g>
<polygon points = "75.267, 773.546 75.374, 895.683 23.116, 885.753 0.000, 874.948 0.000, 757.602 "
fill = "none" stroke = "black"/>
</g>
<g>
<polygon points = "679.879, 461.645 694.028, 441.523 779.775, 456.834 803.823, 522.602 786.713, 541.084 705.400, 526.505 682.734, 503.604 "
fill = "none" stroke = "black"/>
</g>
<g>
<polygon points = "917.879, 754.081 840.129, 692.309 858.984, 636.424 982.171, 561.310 1000.000, 556.621 1000.000, 688.570 "
fill = "none" stroke = "black"/>
</g>
<g>
<polygon points = "975.017, 74.537 730.268, 57.183 708.381, 46.559 696.384, 0.000 1000.000, 0.000 1000.000, 60.511 "
fill = "none" stroke = "black"/>
</g>
<g>
<polygon points = "127.801, 351.884 144.251, 431.674 128.460, 534.069 108.776, 539.738 91.619, 539.241 64.186, 521.799 59.494, 400.834 89.510, 344.822 "
fill = "none" stroke = "black"/>
</g>
<g>
<polygon points = "75.599, 271.358 268.038, 205.200 272.010, 213.906 162.961, 349.868 127.801, 351.884 89.510, 344.822 57.141, 299.097 60.612, 288.166 "
fill = "none" stroke = "black"/>
</g>
<g>
<polygon points = "507.676, 258.064 364.458, 226.041 445.849, 182.773 494.091, 186.126 513.745, 210.755 "
fill = "none" stroke = "black"/>
</g>
<g>
<polygon points = "910.414, 265.304 910.961, 270.177 804.150, 310.311 783.303, 293.669 777.001, 278.319 804.328, 254.187 856.069, 222.010 878.234, 230.840 "
fill = "none" stroke = "black"/>
</g>
<g>
<polygon points = "707.116, 533.497 767.715, 613.364 722.649, 662.516 685.269, 671.433 623.921, 644.827 "
fill = "none" stroke = "black"/>
</g>
<g>
<polygon points = "814.220, 138.606 857.492, 165.632 856.069, 222.010 804.328, 254.187 "
fill = "none" stroke = "black"/>
</g>
<g>
<polygon points = "982.171, 561.310 803.823, 522.602 779.775, 456.834 858.398, 393.123 1000.000, 435.002 1000.000, 556.621 "
fill = "none" stroke = "black"/>
</g>
<g>
<polygon points = "429.195, 456.926 335.487, 478.451 299.622, 469.462 345.116, 320.967 386.221, 332.101 450.483, 370.986 "
fill = "none" stroke = "black"/>
</g>
<g>
<polygon points = "345.116, 320.967 305.346, 241.439 364.458, 226.041 507.676, 258.064 509.628, 267.732 386.221, 332.101 "
fill = "none" stroke = "black"/>
</g>
<g>
<polygon points = "699.264, 768.444 685.269, 671.433 722.649, 662.516 797.809, 724.560 777.593, 811.570 741.761, 823.659 711.641, 794.068 "
fill = "none" stroke = "black"/>
</g>
<g>
<polygon points = "910.961, 270.177 910.414, 265.304 971.921, 214.387 1000.000, 213.897 1000.000, 378.696 "
fill = "none" stroke = "black"/>
</g>
<g>
<polygon points = "603.627, 606.124 682.734, 503.604 705.400, 526.505 707.116, 533.497 623.921, 644.827 607.762, 640.313 "
fill = "none" stroke = "black"/>
</g>
<g>
<polygon points = "445.849, 182.773 364.458, 226.041 305.346, 241.439 272.010, 213.906 268.038, 205.200 266.230, 197.563 420.431, 103.871 "
fill = "none" stroke = "black"/>
</g>
<g>
<polygon points = "79.921, 903.345 72.072, 921.116 23.116, 885.753 75.374, 895.683 "
fill = "none" stroke = "black"/>
</g>
<g>
<polygon points = "858.398, 393.123 804.150, 310.311 910.961, 270.177 1000.000, 378.696 1000.000, 435.002 "
fill = "none" stroke = "black"/>
</g>
<g>
<polygon points = "296.473, 732.872 393.890, 643.669 435.199, 628.553 468.051, 657.559 425.666, 742.688 "
fill = "none" stroke = "black"/>
</g>
<g>
<polygon points = "840.129, 692.309 917.879, 754.081 910.152, 780.091 864.310, 843.932 843.100, 834.219 821.883, 708.657 "
fill = "none" stroke = "black"/>
</g>
<g>
<polygon points = "691.727, 419.141 622.191, 328.309 748.134, 260.176 777.001, 278.319 783.303, 293.669 "
fill = "none" stroke = "black"/>
</g>
<g>
<polygon points = "511.897, 985.991 527.113, 1000.000 323.457, 1000.000 378.639, 945.986 "
fill = "none" stroke = "black"/>
</g>
<g>
<polygon points = "590.399, 589.427 617.233, 462.830 679.879, 461.645 682.734, 503.604 603.627, 606.124 "
fill = "none" stroke = "black"/>
</g>
<g>
<polygon points = "271.649, 744.839 388.568, 850.272 235.403, 959.655 205.594, 836.667 209.995, 777.936 261.809, 744.756 "
fill = "none" stroke = "black"/>
</g>
<g>
<polygon points = "435.199, 628.553 439.416, 599.020 446.225, 591.099 582.782, 581.554 590.399, 589.427 603.627, 606.124 607.762, 640.313 599.111, 647.578 490.181, 666.623 468.051, 657.559 "
fill = "none" stroke = "black"/>
</g>
<g>
<polygon points = "335.487, 478.451 429.195, 456.926 459.758, 474.198 447.859, 587.114 446.225, 591.099 439.416, 599.020 "
fill = "none" stroke = "black"/>
</g>
<g>
<polygon points = "722.649, 662.516 767.715, 613.364 776.863, 609.363 858.984, 636.424 840.129, 692.309 821.883, 708.657 797.809, 724.560 "
fill = "none" stroke = "black"/>
</g>
<g>
<polygon points = "836.096, 903.702 874.225, 859.239 883.143, 864.725 890.387, 978.807 843.549, 970.281 "
fill = "none" stroke = "black"/>
</g>
<g>
<polygon points = "64.186, 521.799 91.619, 539.241 84.821, 554.139 0.000, 667.946 0.000, 518.627 "
fill = "none" stroke = "black"/>
</g>
<g>
<polygon points = "536.596, 466.039 506.934, 405.340 574.239, 312.222 598.559, 313.150 616.598, 326.604 574.492, 457.845 541.754, 468.851 "
fill = "none" stroke = "black"/>
</g>
<g>
<polygon points = "982.171, 561.310 858.984, 636.424 776.863, 609.363 786.713, 541.084 803.823, 522.602 "
fill = "none" stroke = "black"/>
</g>
<g>
<polygon points = "282.401, 487.562 292.777, 473.379 299.622, 469.462 335.487, 478.451 439.416, 599.020 435.199, 628.553 393.890, 643.669 288.184, 566.101 "
fill = "none" stroke = "black"/>
</g>
<g>
<polygon points = "741.761, 823.659 777.593, 811.570 843.100, 834.219 864.310, 843.932 874.225, 859.239 836.096, 903.702 669.870, 1000.000 651.161, 1000.000 "
fill = "none" stroke = "black"/>
</g>
<g>
<polygon points = "459.758, 474.198 536.596, 466.039 541.754, 468.851 543.892, 495.260 447.859, 587.114 "
fill = "none" stroke = "black"/>
</g>
<g>
<polygon points = "506.934, 405.340 536.596, 466.039 459.758, 474.198 429.195, 456.926 450.483, 370.986 465.536, 369.808 "
fill = "none" stroke = "black"/>
</g>
<g>
<polygon points = "23.116, 885.753 72.072, 921.116 67.970, 1000.000 0.000, 1000.000 0.000, 874.948 "
fill = "none" stroke = "black"/>
</g>
<g>
<polygon points = "288.184, 566.101 393.890, 643.669 296.473, 732.872 271.649, 744.839 261.809, 744.756 254.662, 660.963 "
fill = "none" stroke = "black"/>
</g>
<g>
<polygon points = "177.140, 373.501 162.961, 349.868 272.010, 213.906 305.346, 241.439 345.116, 320.967 299.622, 469.462 292.777, 473.379 "
fill = "none" stroke = "black"/>
</g>
<g>
<polygon points = "883.143, 864.725 874.225, 859.239 864.310, 843.932 910.152, 780.091 1000.000, 846.047 1000.000, 901.214 "
fill = "none" stroke = "black"/>
</g>
<g>
<polygon points = "428.138, 860.993 511.897, 985.991 378.639, 945.986 413.734, 863.493 "
fill = "none" stroke = "black"/>
</g>
<g>
<polygon points = "691.727, 419.141 694.028, 441.523 679.879, 461.645 617.233, 462.830 574.492, 457.845 616.598, 326.604 622.191, 328.309 "
fill = "none" stroke = "black"/>
</g>
<g>
<polygon points = "935.107, 126.766 857.492, 165.632 814.220, 138.606 730.268, 57.183 975.017, 74.537 "
fill = "none" stroke = "black"/>
</g>
<g>
<polygon points = "708.381, 46.559 730.268, 57.183 814.220, 138.606 804.328, 254.187 777.001, 278.319 748.134, 260.176 683.591, 132.157 "
fill = "none" stroke = "black"/>
</g>
<g>
<polygon points = "122.220, 120.997 75.599, 271.358 60.612, 288.166 0.000, 194.970 0.000, 177.990 "
fill = "none" stroke = "black"/>
</g>
<g>
<polygon points = "79.921, 903.345 75.374, 895.683 75.267, 773.546 183.514, 768.021 209.995, 777.936 205.594, 836.667 "
fill = "none" stroke = "black"/>
</g>
<g>
<polygon points = "296.473, 732.872 425.666, 742.688 489.738, 809.831 428.138, 860.993 413.734, 863.493 388.568, 850.272 271.649, 744.839 "
fill = "none" stroke = "black"/>
</g>
<g>
<polygon points = "84.734, 663.938 142.343, 700.546 183.514, 768.021 75.267, 773.546 0.000, 757.602 0.000, 689.008 "
fill = "none" stroke = "black"/>
</g>
<g>
<polygon points = "858.398, 393.123 779.775, 456.834 694.028, 441.523 691.727, 419.141 783.303, 293.669 804.150, 310.311 "
fill = "none" stroke = "black"/>
</g>
<g>
<polygon points = "251.842, 171.419 136.807, 105.253 133.258, 97.897 135.865, 0.000 321.375, 0.000 "
fill = "none" stroke = "black"/>
</g>
<g>
<polygon points = "708.381, 46.559 683.591, 132.157 639.561, 164.112 502.426, 117.614 492.620, 82.818 551.847, 0.000 696.384, 0.000 "
fill = "none" stroke = "black"/>
</g>
<g>
<polygon points = "507.676, 258.064 513.745, 210.755 621.158, 184.657 598.559, 313.150 574.239, 312.222 532.967, 301.003 509.628, 267.732 "
fill = "none" stroke = "black"/>
</g>
<g>
<polygon points = "587.655, 754.957 699.264, 768.444 711.641, 794.068 562.945, 832.519 554.595, 822.854 "
fill = "none" stroke = "black"/>
</g>
<g>
<polygon points = "282.401, 487.562 288.184, 566.101 254.662, 660.963 139.022, 534.450 "
fill = "none" stroke = "black"/>
</g>
<g>
<polygon points = "489.738, 809.831 495.328, 808.396 554.595, 822.854 562.945, 832.519 646.152, 1000.000 527.113, 1000.000 511.897, 985.991 428.138, 860.993 "
fill = "none" stroke = "black"/>
</g>
<g>
<polygon points = "776.863, 609.363 767.715, 613.364 707.116, 533.497 705.400, 526.505 786.713, 541.084 "
fill = "none" stroke = "black"/>
</g>
<g>
<polygon points = "971.921, 214.387 910.414, 265.304 878.234, 230.840 940.344, 185.047 "
fill = "none" stroke = "black"/>
</g>
<g>
<polygon points = "122.220, 120.997 136.807, 105.253 251.842, 171.419 266.230, 197.563 268.038, 205.200 75.599, 271.358 "
fill = "none" stroke = "black"/>
</g>
<g>
<polygon points = "836.096, 903.702 843.549, 970.281 780.988, 1000.000 669.870, 1000.000 "
fill = "none" stroke = "black"/>
</g>
<g>
<polygon points = "971.921, 214.387 940.344, 185.047 935.107, 126.766 975.017, 74.537 1000.000, 60.511 1000.000, 213.897 "
fill = "none" stroke = "black"/>
</g>
<g>
<polygon points = "177.140, 373.501 292.777, 473.379 282.401, 487.562 139.022, 534.450 128.460, 534.069 144.251, 431.674 "
fill = "none" stroke = "black"/>
</g>
<g>
<polygon points = "205.594, 836.667 235.403, 959.655 239.344, 1000.000 67.970, 1000.000 72.072, 921.116 79.921, 903.345 "
fill = "none" stroke = "black"/>
</g>
<g>
<polygon points = "599.111, 647.578 587.655, 754.957 554.595, 822.854 495.328, 808.396 490.181, 666.623 "
fill = "none" stroke = "black"/>
</g>
<g>
<polygon points = "162.961, 349.868 177.140, 373.501 144.251, 431.674 127.801, 351.884 "
fill = "none" stroke = "black"/>
</g>
</svg>
